<svg id="Layer_1" data-name="Layer 1" xmlns="http://www.w3.org/2000/svg" viewBox="0 0 2000 2000"><defs><style>.cls-1{fill:#fff;}</style></defs><title>Typography-LinkedLyst</title><path class="cls-1" d="M261.4,875.12h43v168h92v39h-135Z"/><path class="cls-1" d="M425.93,914.37a22.32,22.32,0,0,1,0-32.69q7.11-6.58,18.45-6.59t18.45,6.33A20.26,20.26,0,0,1,470,897.23a22.35,22.35,0,0,1-7.12,17Q455.72,921,444.38,921T425.93,914.37Zm-2.53,26.75h41v142h-41Z"/><path class="cls-1" d="M626.14,954.85q16.26,15.84,16.26,47v81.29h-41v-74.86q0-16.86-7.42-25.17t-21.44-8.3q-15.62,0-24.88,9.62T538.4,1013v70.11h-41v-142h39v16.63a54.71,54.71,0,0,1,20.35-13.86,71.11,71.11,0,0,1,26.7-4.88Q609.88,939,626.14,954.85Z"/><path class="cls-1" d="M733.12,1023.29l-19.72,20.64v38.19h-41v-207h41V992.35l60-60.23h48.92l-58.91,63.57,64.17,86.43H777.83Z"/><path class="cls-1" d="M981.29,1022.12H874A33.44,33.44,0,0,0,887.71,1043q10.8,7.65,26.89,7.64a54.42,54.42,0,0,0,19.64-3.29,47.66,47.66,0,0,0,15.94-10.41l21.88,23.72q-20,22.94-58.52,22.93-24,0-42.44-9.36a68.48,68.48,0,0,1-28.46-26q-10-16.6-10-37.69A72.6,72.6,0,0,1,842.5,973a69.27,69.27,0,0,1,27.16-26.09q17.25-9.36,38.61-9.36a79.17,79.17,0,0,1,37.7,9,65.51,65.51,0,0,1,26.49,25.7q9.62,16.74,9.62,38.88Q982.08,1011.85,981.29,1022.12Zm-96.21-45.61q-9.5,7.9-11.6,21.61h69.85q-2.12-13.44-11.6-21.48t-23.19-8Q894.56,968.6,885.08,976.51Z"/><path class="cls-1" d="M1161.4,875.12v207h-39v-17c-10.75,13-25.51,19.55-44.84,19.55a70.24,70.24,0,0,1-36.24-9.5,66.15,66.15,0,0,1-25.44-27.09q-9.23-17.58-9.23-40.77t9.23-40.77a66.21,66.21,0,0,1,25.44-27.09,70.33,70.33,0,0,1,36.24-9.5c18.1,0,42.84,18.15,42.84,18.15v-73Zm-50.89,162.47q10.27-11.31,10.28-30.3T1110.51,977a33.42,33.42,0,0,0-25.83-11.31q-15.83,0-26.1,11.31t-10.28,30.3q0,19,10.28,30.3t26.1,11.31A33.42,33.42,0,0,0,1110.51,1037.59Z"/><path class="cls-1" d="M1199.4,875.12h42v168h93v39h-135Z"/><path class="cls-1" d="M1535.72,1079a100.46,100.46,0,0,1-15.16-4.91,67.5,67.5,0,0,1-11.73-6l13.71-29.52a86.13,86.13,0,0,0,22.93,9.89,96,96,0,0,0,26.36,3.82q26.1,0,26.1-12.92,0-6.06-7.12-8.7t-21.88-4.48a210.38,210.38,0,0,1-28.73-6.06,44.55,44.55,0,0,1-19.64-12.13q-8.3-8.7-8.3-24.77a38.83,38.83,0,0,1,7.77-23.86q7.79-10.41,22.67-16.21c3.07-1.19,11.51-4.4,35.19-5.8,12.28-.73,19.22-.42,37.62-.26,10.35.09,22.41.12,35.89,0v33h-86.14a16.32,16.32,0,0,0-7.13,2c-1.34.75-4.93,2.8-6.17,6.68a9.33,9.33,0,0,0-.43,2.81q0,6.6,7.12,9.23t22.67,5a243.43,243.43,0,0,1,28.47,6.19,42.81,42.81,0,0,1,19.24,12q8.17,8.7,8.17,24.25a37.46,37.46,0,0,1-7.9,23.46q-7.92,10.28-23.07,16c-13.93,5.2-25.52,5.57-36,5.66A133.58,133.58,0,0,1,1535.72,1079Z"/><path class="cls-1" d="M1738.6,1074.59a41.26,41.26,0,0,1-14.85,7,72.32,72.32,0,0,1-18.53,2.33q-25.23,0-39-13.47t-13.79-39.58V901.12h41v36h35v33h-35v60.21q0,9.35,4.6,14.43t13,5.09a25.53,25.53,0,0,0,16.55-5.5Z"/><path class="cls-1" d="M1505.61,939.91l-60.75,142.75q-9.25,23.25-22.87,32.75t-32.88,9.5a68.47,68.47,0,0,1-20.75-3.25,45.83,45.83,0,0,1-16.75-9l14.25-27.75a33.6,33.6,0,0,0,10.38,6.25,32.26,32.26,0,0,0,11.62,2.25q8,0,13-3.88t9-12.87l.5-1.25-58.25-135.5h40.25l37.75,91.25,38-91.25Z"/></svg>