<svg width="3275" height="2480" viewBox="0 0 3275 2480" fill="none" xmlns="http://www.w3.org/2000/svg">
<path d="M1942.79 320.04C2206.28 772.549 2299.85 1289.37 2083.15 1718.91C1866.45 2150.75 1339.48 2495.3 874.064 2463.14C406.189 2428.69 -0.123169 2019.82 -320.248 1532.86C-640.373 1045.89 -874.311 483.127 -669.923 65.0727C-467.998 -355.278 172.252 -630.918 709.077 -575.79C1245.9 -518.365 1679.3 -132.469 1942.79 320.04Z" fill="#944CBF" fill-opacity="0.25"/>
<ellipse cx="377.5" cy="2195" rx="275.5" ry="270" fill="#4B146D"/>
<rect x="2207.04" y="2142.18" width="10.1348" height="108.949" transform="rotate(30.6432 2207.04 2142.18)" fill="#4B146D"/>
<rect x="2134.18" y="2168.23" width="10.1348" height="108.949" transform="rotate(-59.3568 2134.18 2168.23)" fill="#4B146D"/>
<rect x="1865.04" y="221.182" width="10.1348" height="108.949" transform="rotate(30.6432 1865.04 221.182)" fill="#4B146D"/>
<rect x="1792.18" y="247.229" width="10.1348" height="108.949" transform="rotate(-59.3568 1792.18 247.229)" fill="#4B146D"/>
</svg>
