<svg id="Layer_1" data-name="Layer 1" xmlns="http://www.w3.org/2000/svg" viewBox="0 0 2000 2000"><title>Logo</title><path d="M774.69,927h29.74v117.19h64.45v27.24H774.69Z"/><path d="M889,954.29a15.55,15.55,0,0,1,0-22.77q5-4.59,12.85-4.59t12.85,4.4a14.12,14.12,0,0,1,5,11,15.56,15.56,0,0,1-5,11.84q-4.95,4.69-12.85,4.69T889,954.29Zm-1.47,18.36h28.64v98.78H887.57Z"/><path d="M1028.53,982.19q11.28,11,11.29,32.69v56.55h-28.64v-52.15q0-11.74-5.15-17.53T991.16,996q-10.83,0-17.26,6.7t-6.42,19.92v48.84H938.83V972.65h27.36v11.56a38,38,0,0,1,14.14-9.64,49.33,49.33,0,0,1,18.54-3.39Q1017.23,971.18,1028.53,982.19Z"/><path d="M1103.12,1030.36l-13.77,14.4v26.67h-28.64V927h28.64v81.75l41.86-42h34.15l-41.12,44.38,44.8,60.34h-34.71Z"/><path d="M1275.88,1029.12h-74.73a23.24,23.24,0,0,0,9.55,14.5q7.52,5.33,18.72,5.33a37.9,37.9,0,0,0,13.68-2.3,33.21,33.21,0,0,0,11.11-7.25l15.24,16.52q-14,16-40.76,16-16.71,0-29.56-6.52a47.68,47.68,0,0,1-19.83-18.09,49.83,49.83,0,0,1-7-26.25,50.52,50.52,0,0,1,6.89-26.17,48.18,48.18,0,0,1,18.91-18.17,58.54,58.54,0,0,1,53.15-.28,45.56,45.56,0,0,1,18.46,17.9q6.69,11.67,6.7,27.09C1276.43,1021.77,1276.24,1024.34,1275.88,1029.12Zm-67-31.77q-6.61,5.5-8.08,15.06h48.66a23.71,23.71,0,0,0-8.08-15,24.19,24.19,0,0,0-16.16-5.6Q1215.47,991.84,1208.86,997.35Z"/><path d="M1401.14,927v144.34h-27.36v-12.06q-10.65,13.62-30.84,13.62a49,49,0,0,1-25.25-6.62,46.11,46.11,0,0,1-17.72-18.87q-6.42-12.26-6.42-28.4t6.42-28.4a46.17,46.17,0,0,1,17.72-18.87,49,49,0,0,1,25.25-6.61q18.9,0,29.56,12.64V927Zm-35.25,113.12q7.15-7.87,7.16-21.11t-7.16-21.1a24.69,24.69,0,0,0-36.17,0q-7.17,7.88-7.16,21.1t7.16,21.11a24.69,24.69,0,0,0,36.17,0Z"/><path d="M1427.6,927h29.74v117.19h64.45v27.24H1427.6Z"/><path d="M1538,954.29a15.55,15.55,0,0,1,0-22.77q5-4.59,12.85-4.59t12.85,4.4a14.12,14.12,0,0,1,5,11,15.56,15.56,0,0,1-5,11.84q-5,4.69-12.85,4.69T1538,954.29Zm-1.47,18.36h28.64v98.78h-28.64Z"/><path d="M1600.92,1068.87a70.91,70.91,0,0,1-10.56-3.42,47.49,47.49,0,0,1-8.17-4.2l9.55-20.57a59.77,59.77,0,0,0,16,6.89,66.72,66.72,0,0,0,18.36,2.66q18.18,0,18.18-9c0-2.82-1.66-4.84-5-6.06s-8.39-2.27-15.24-3.13a146.94,146.94,0,0,1-20-4.22,31,31,0,0,1-13.67-8.44q-5.79-6.06-5.79-17.26a27.05,27.05,0,0,1,5.42-16.62q5.41-7.25,15.79-11.29c2.13-.83,8-3.07,24.51-4,8.55-.51,13.38-.29,26.2-.18,7.21.06,15.61.08,25,0v23h-60a11.3,11.3,0,0,0-5,1.41c-.93.53-3.43,2-4.29,4.65a6.38,6.38,0,0,0-.3,2q0,4.61,5,6.43t15.79,3.49a171.88,171.88,0,0,1,19.83,4.31,29.85,29.85,0,0,1,13.4,8.36q5.68,6.06,5.69,16.89a26.08,26.08,0,0,1-5.5,16.34Q1660.59,1064,1650,1068c-9.7,3.63-17.78,3.89-25.06,4A93.78,93.78,0,0,1,1600.92,1068.87Z"/><path d="M1742,1065.41a29,29,0,0,1-10.37,4.87,50.72,50.72,0,0,1-12.95,1.62q-17.62,0-27.26-9.35t-9.64-27.48V945h28.64v25H1735v22.9h-24.6v41.79q0,6.48,3.21,10t9.09,3.53a17.93,17.93,0,0,0,11.57-3.82Z"/><rect x="269.38" y="972.65" width="54.71" height="54.71" transform="translate(794.03 83.07) rotate(45)"/><rect x="335.15" y="1022.01" width="54.71" height="87.54" transform="translate(1372.46 1563.07) rotate(135)"/><polygon points="428.47 1093.7 428.47 1170.42 389.59 1131.55 428.28 1092.86 428.47 1093.7"/><rect x="335.15" y="890.47" width="54.71" height="87.54" transform="translate(766.78 17.3) rotate(45)"/><polygon points="428.47 829.58 428.47 906.36 428.29 907.15 389.59 868.46 428.47 829.58"/><rect x="622.68" y="972.65" width="54.71" height="54.71" transform="translate(1816.79 1247.48) rotate(135)"/><rect x="556.91" y="1022.01" width="54.71" height="87.54" transform="translate(924.75 -100.98) rotate(45)"/><line x1="518.3" y1="1170.42" x2="518.3" y2="1093.7"/><polygon points="518.3 1093.7 518.3 1170.42 557.18 1131.55 518.5 1092.86 518.3 1093.7"/><rect x="556.91" y="890.47" width="54.71" height="87.54" transform="translate(1658 1181.71) rotate(135)"/><line x1="518.3" y1="906.36" x2="518.3" y2="829.58"/><polygon points="518.3 829.58 518.3 906.36 518.48 907.15 557.18 868.46 518.3 829.58"/></svg>