<svg id="Layer_1" data-name="Layer 1" xmlns="http://www.w3.org/2000/svg" viewBox="0 0 2000 2000"><title>Logo-icon</title><rect x="282.39" y="903.84" width="192.53" height="192.53" transform="translate(818.09 25.17) rotate(45)"/><rect x="513.83" y="1077.52" width="192.53" height="308.05" transform="translate(1912.34 1670.98) rotate(135)"/><polygon points="842.21 1329.8 842.21 1599.78 705.38 1462.99 841.52 1326.85 842.21 1329.8"/><rect x="513.83" y="614.64" width="192.53" height="308.05" transform="translate(722.23 -206.27) rotate(45)"/><polygon points="842.21 400.38 842.21 670.57 841.57 673.35 705.38 537.21 842.21 400.38"/><rect x="1525.59" y="903.84" width="192.53" height="192.53" transform="translate(3475.87 560.47) rotate(135)"/><rect x="1294.15" y="1077.52" width="192.53" height="308.05" transform="translate(1278.08 -622.46) rotate(45)"/><line x1="1158.31" y1="1599.78" x2="1158.31" y2="1329.8"/><polygon points="1158.31 1329.8 1158.31 1599.78 1295.13 1462.99 1158.99 1326.85 1158.31 1329.8"/><rect x="1294.15" y="614.64" width="192.53" height="308.05" transform="translate(2917.12 329.03) rotate(135)"/><line x1="1158.31" y1="670.57" x2="1158.31" y2="400.38"/><polygon points="1158.31 400.38 1158.31 670.57 1158.95 673.35 1295.13 537.21 1158.31 400.38"/></svg>