<svg id="Layer_1" data-name="Layer 1" xmlns="http://www.w3.org/2000/svg" viewBox="0 0 2000 2000"><title>Typography</title><path d="M331,845h43v168h92v39H331Z"/><path d="M495.53,884.24a22.31,22.31,0,0,1,0-32.68Q502.66,845,514,845t18.45,6.32a20.28,20.28,0,0,1,7.12,15.82,22.37,22.37,0,0,1-7.12,17q-7.11,6.72-18.45,6.72T495.53,884.24ZM493,911h41v142H493Z"/><path d="M695.74,924.73q16.26,15.82,16.26,47V1053H671V978.14q0-16.87-7.41-25.17t-21.44-8.31q-15.63,0-24.89,9.62T608,982.88V1053H567V911h39v16.63a54.79,54.79,0,0,1,20.35-13.86,71.15,71.15,0,0,1,26.7-4.88Q679.48,908.89,695.74,924.73Z"/><path d="M802.72,993.17,783,1013.8V1052H742V845h41V962.22L843,902h48.92L833,965.57,897.14,1052H847.43Z"/><path d="M1050.89,992H943.61a33.38,33.38,0,0,0,13.7,20.82q10.82,7.65,26.89,7.65a54.38,54.38,0,0,0,19.64-3.3,47.49,47.49,0,0,0,15.95-10.41l21.88,23.73q-20,22.92-58.52,22.93-24,0-42.44-9.36a68.63,68.63,0,0,1-28.47-26q-10-16.61-10-37.7a72.47,72.47,0,0,1,9.89-37.56,69.27,69.27,0,0,1,27.15-26.1q17.26-9.35,38.61-9.35,20.83,0,37.7,9a65.45,65.45,0,0,1,26.49,25.7q9.62,16.74,9.62,38.88Q1051.68,981.73,1050.89,992Zm-96.21-45.62q-9.49,7.92-11.6,21.62h69.85q-2.1-13.44-11.59-21.48t-23.2-8Q964.16,938.48,954.68,946.38Z"/><path d="M1231,845v207h-39v-17c-10.75,13-25.51,19.55-44.84,19.55a70.39,70.39,0,0,1-36.24-9.5,66.21,66.21,0,0,1-25.44-27.09q-9.23-17.6-9.22-40.77t9.22-40.78a66.21,66.21,0,0,1,25.44-27.09,70.48,70.48,0,0,1,36.24-9.49c18.1,0,42.84,18.15,42.84,18.15V845Zm-50.89,162.47q10.29-11.31,10.28-30.3t-10.28-30.31a33.45,33.45,0,0,0-25.83-11.31q-15.81,0-26.09,11.31t-10.29,30.31q0,19,10.29,30.3t26.09,11.31A33.42,33.42,0,0,0,1180.11,1007.47Z"/><path d="M1269,845h42v168h93v39H1269Z"/><path d="M1427.12,884.24a22.33,22.33,0,0,1,0-32.68q7.13-6.59,18.46-6.59t18.45,6.32a20.31,20.31,0,0,1,7.12,15.82,22.4,22.4,0,0,1-7.12,17q-7.12,6.72-18.45,6.72T1427.12,884.24ZM1425,911h41v142h-41Z"/><path d="M1517.32,1048.92a102.08,102.08,0,0,1-15.16-4.91,67.5,67.5,0,0,1-11.73-6l13.71-29.52a86.06,86.06,0,0,0,22.94,9.88,96,96,0,0,0,26.35,3.82q26.1,0,26.1-12.91,0-6.06-7.12-8.7t-21.88-4.48A212.57,212.57,0,0,1,1521.8,990a44.7,44.7,0,0,1-19.64-12.13q-8.29-8.7-8.3-24.78a38.77,38.77,0,0,1,7.78-23.85q7.77-10.41,22.67-16.22c3.06-1.19,11.51-4.39,35.19-5.79,12.28-.73,19.21-.42,37.61-.26,10.35.09,22.41.12,35.89,0v33h-86.14a16.22,16.22,0,0,0-7.13,2c-1.33.75-4.93,2.8-6.16,6.67a9.13,9.13,0,0,0-.43,2.82q0,6.6,7.12,9.23t22.66,5a243.18,243.18,0,0,1,28.47,6.2,42.74,42.74,0,0,1,19.24,12q8.17,8.7,8.18,24.25a37.45,37.45,0,0,1-7.91,23.46q-7.9,10.29-23.07,15.95c-13.93,5.21-25.51,5.58-36,5.67A134.1,134.1,0,0,1,1517.32,1048.92Z"/><path d="M1720.21,1044.46a41.25,41.25,0,0,1-14.85,7,71.94,71.94,0,0,1-18.53,2.34q-25.23,0-39-13.47t-13.8-39.59V871h41v36h35v33h-35v60.2q0,9.36,4.6,14.44t13,5.08a25.57,25.57,0,0,0,16.56-5.5Z"/></svg>